<?xml version="1.0" encoding="UTF-8" standalone="no"?>
<!-- Created with Inkscape (http://www.inkscape.org/) -->

<svg
   width="21.631254mm"
   height="21.63125mm"
   viewBox="0 0 21.631254 21.63125"
   version="1.1"
   id="svg5"
   inkscape:version="1.1.1 (1:1.1+202109281949+c3084ef5ed)"
   sodipodi:docname="moon.svg"
   xmlns:inkscape="http://www.inkscape.org/namespaces/inkscape"
   xmlns:sodipodi="http://sodipodi.sourceforge.net/DTD/sodipodi-0.dtd"
   xmlns="http://www.w3.org/2000/svg"
   xmlns:svg="http://www.w3.org/2000/svg">
  <sodipodi:namedview
     id="namedview7"
     pagecolor="#ffffff"
     bordercolor="#666666"
     borderopacity="1.0"
     inkscape:pageshadow="2"
     inkscape:pageopacity="0.0"
     inkscape:pagecheckerboard="0"
     inkscape:document-units="mm"
     showgrid="false"
     inkscape:zoom="0.34016122"
     inkscape:cx="486.53401"
     inkscape:cy="48.506412"
     inkscape:window-width="1366"
     inkscape:window-height="704"
     inkscape:window-x="0"
     inkscape:window-y="27"
     inkscape:window-maximized="1"
     inkscape:current-layer="layer1"
     fit-margin-top="0.1"
     fit-margin-right="0.1"
     fit-margin-left="0.1"
     fit-margin-bottom="0.1" />
  <defs
     id="defs2" />
  <g
     inkscape:label="Camada 1"
     inkscape:groupmode="layer"
     id="layer1"
     transform="translate(-95.206886,-133.91257)">
    <path
       d="m 116.73814,146.97715 c -1.0848,4.84188 -5.42396,8.46667 -10.58334,8.46667 -5.97958,0 -10.847914,-4.86833 -10.847914,-10.84792 0,-5.15937 3.624791,-9.49854 8.466664,-10.58333 -2.30187,1.71979 -3.70416,4.445 -3.70416,7.40833 0,5.10646 4.15395,9.26042 9.26041,9.26042 2.96334,0 5.68854,-1.42875 7.40834,-3.70417 z m -9.23396,-8.99583 c 0.10583,0.15875 0.26458,0.26458 0.44979,0.26458 0.0794,0 0.18521,-0.0265 0.26458,-0.0794 l 0.58209,-0.34396 v 0.66146 c 0,0.29104 0.23812,0.52917 0.52916,0.52917 0.29104,0 0.52917,-0.23813 0.52917,-0.52917 v -0.635 l 0.58208,0.34396 c 0.0794,0.0529 0.18521,0.0794 0.26459,0.0794 0.1852,0 0.37041,-0.10583 0.44979,-0.26458 0.15875,-0.26458 0.0529,-0.58208 -0.18521,-0.71438 l -0.58208,-0.34395 0.58208,-0.34396 c 0.26458,-0.15875 0.34396,-0.47625 0.18521,-0.71438 -0.15875,-0.26458 -0.47625,-0.34396 -0.71438,-0.18521 l -0.58208,0.29105 v -0.66146 c 0,-0.29104 -0.23813,-0.52917 -0.52917,-0.52917 -0.29104,0 -0.52916,0.23813 -0.52916,0.52917 v 0.66146 l -0.58209,-0.34396 c -0.26458,-0.15875 -0.58208,-0.0529 -0.71437,0.18521 -0.15875,0.26458 -0.0529,0.58208 0.18521,0.71437 l 0.58208,0.34396 -0.58208,0.34396 c -0.26459,0.15875 -0.34396,0.47625 -0.18521,0.74083 z m 3.04271,5.18583 c -0.21167,0.21167 -0.21167,0.52917 0,0.74084 l 0.42333,0.42333 -0.42333,0.42333 c -0.21167,0.21167 -0.21167,0.52917 0,0.74084 0.10583,0.10583 0.23812,0.15875 0.37041,0.15875 0.13229,0 0.26459,-0.0529 0.37042,-0.15875 l 0.42333,-0.42334 0.42334,0.42334 c 0.10583,0.10583 0.23812,0.15875 0.37041,0.15875 0.13229,0 0.26459,-0.0529 0.37042,-0.15875 0.21167,-0.21167 0.21167,-0.52917 0,-0.74084 l -0.42333,-0.42333 0.42333,-0.42333 c 0.21167,-0.21167 0.21167,-0.52917 0,-0.74084 -0.21167,-0.21166 -0.52917,-0.21166 -0.74083,0 l -0.42334,0.42334 -0.42333,-0.42334 c -0.21167,-0.21166 -0.52917,-0.21166 -0.74083,0 z"
       id="path53"
       style="fill:#ffffff;stroke-width:0.264583" />
  </g>
</svg>
