<?xml version="1.0" encoding="UTF-8" standalone="no"?>
<!-- Created with Inkscape (http://www.inkscape.org/) -->

<svg
   width="24.012501mm"
   height="24.012501mm"
   viewBox="0 0 24.012501 24.012501"
   version="1.1"
   id="svg5"
   inkscape:version="1.1.1 (1:1.1+202109281949+c3084ef5ed)"
   sodipodi:docname="sun.svg"
   xmlns:inkscape="http://www.inkscape.org/namespaces/inkscape"
   xmlns:sodipodi="http://sodipodi.sourceforge.net/DTD/sodipodi-0.dtd"
   xmlns="http://www.w3.org/2000/svg"
   xmlns:svg="http://www.w3.org/2000/svg">
  <sodipodi:namedview
     id="namedview7"
     pagecolor="#ffffff"
     bordercolor="#666666"
     borderopacity="1.0"
     inkscape:pageshadow="2"
     inkscape:pageopacity="0.0"
     inkscape:pagecheckerboard="0"
     inkscape:document-units="mm"
     showgrid="false"
     inkscape:zoom="2.7212897"
     inkscape:cx="43.178056"
     inkscape:cy="58.611914"
     inkscape:window-width="1366"
     inkscape:window-height="704"
     inkscape:window-x="0"
     inkscape:window-y="27"
     inkscape:window-maximized="1"
     inkscape:current-layer="layer1"
     fit-margin-top="0.1"
     fit-margin-right="0.1"
     fit-margin-left="0.1"
     fit-margin-bottom="0.1" />
  <defs
     id="defs2" />
  <g
     inkscape:label="Camada 1"
     inkscape:groupmode="layer"
     id="layer1"
     transform="translate(-212.58163,-193.51422)">
    <g
       id="g781"
       style="fill:#ffffff">
      <path
         d="m 216.41225,206.02317 h -3.22792 c -0.26458,0 -0.5027,-0.23812 -0.5027,-0.5027 0,-0.26459 0.21166,-0.50271 0.5027,-0.50271 h 3.22792 c 0.26458,0 0.50271,0.21166 0.50271,0.50271 0,0.26458 -0.23813,0.5027 -0.50271,0.5027 z"
         id="path640"
         style="fill:#ffffff;stroke-width:0.264583" />
      <path
         d="m 219.13746,210.97088 c 0.18521,0.18521 0.18521,0.50271 0,0.68792 l -2.27542,2.27542 c -0.18521,0.1852 -0.50271,0.1852 -0.68791,0 -0.18521,-0.18521 -0.18521,-0.50271 0,-0.68792 l 2.27541,-2.27542 c 0.21167,-0.21166 0.50271,-0.21166 0.68792,0 z"
         id="path642"
         style="fill:#ffffff;stroke-width:0.264583" />
      <path
         d="m 216.17413,197.79463 c -0.18521,-0.18521 -0.18521,-0.50271 0,-0.68791 0.1852,-0.18521 0.5027,-0.18521 0.68791,0 l 2.27542,2.27541 c 0.18521,0.18521 0.18521,0.50271 0,0.68792 -0.18521,0.18521 -0.50271,0.18521 -0.68792,0 z"
         id="path644"
         style="fill:#ffffff;stroke-width:0.264583" />
      <path
         d="m 224.08517,197.34484 v -3.22792 c 0,-0.26458 0.23812,-0.5027 0.50271,-0.5027 0.26458,0 0.5027,0.21166 0.5027,0.5027 v 3.22792 c 0,0.26458 -0.21166,0.50271 -0.5027,0.50271 -0.26459,0 -0.50271,-0.23813 -0.50271,-0.50271 z"
         id="path646"
         style="fill:#ffffff;stroke-width:0.264583" />
      <path
         d="m 225.09058,213.69609 v 3.22792 c 0,0.26458 -0.21166,0.50271 -0.5027,0.50271 -0.26459,0 -0.50271,-0.21167 -0.50271,-0.50271 v -3.22792 c 0,-0.26458 0.21166,-0.50271 0.50271,-0.50271 0.26458,0 0.5027,0.23813 0.5027,0.50271 z"
         id="path648"
         style="fill:#ffffff;stroke-width:0.264583" />
      <circle
         cx="224.58788"
         cy="205.52046"
         id="ellipse650"
         r="7.0643749"
         style="fill:#ffffff;stroke-width:0.264583" />
      <path
         d="m 233.00163,213.2463 c 0.1852,0.18521 0.1852,0.50271 0,0.68792 -0.18521,0.1852 -0.50271,0.1852 -0.68792,0 l -2.27542,-2.27542 c -0.18521,-0.18521 -0.18521,-0.50271 0,-0.68792 0.18521,-0.18521 0.50271,-0.18521 0.68792,0 z"
         id="path652"
         style="fill:#ffffff;stroke-width:0.264583" />
      <path
         d="m 230.03829,200.09651 c -0.18521,-0.18521 -0.18521,-0.50271 0,-0.68792 l 2.27542,-2.27542 c 0.18521,-0.1852 0.50271,-0.1852 0.68792,0 0.1852,0.18521 0.1852,0.50271 0,0.68792 l -2.27542,2.27542 c -0.0794,0.0794 -0.21167,0.13229 -0.34396,0.13229 -0.13229,0 -0.26458,-0.0529 -0.34396,-0.13229 z"
         id="path654"
         style="fill:#ffffff;stroke-width:0.264583" />
      <path
         d="m 236.49413,205.52047 c 0,0.26458 -0.21167,0.5027 -0.50271,0.5027 h -3.22792 c -0.26458,0 -0.50271,-0.21166 -0.50271,-0.5027 0,-0.26459 0.21167,-0.50271 0.50271,-0.50271 h 3.22792 c 0.29104,0 0.50271,0.23812 0.50271,0.50271 z"
         id="path656"
         style="fill:#ffffff;stroke-width:0.264583" />
    </g>
  </g>
</svg>
